<svg xmlns="http://www.w3.org/2000/svg" xmlns:xlink="http://www.w3.org/1999/xlink" preserveAspectRatio="xMidYMid meet" version="1.0" viewBox="0.0 0.0 467.5 467.5" zoomAndPan="magnify" style="fill: rgb(254, 0, 0);" original_string_length="1457"><g id="__id261_sv2fei223p"><path d="M399.0292969,68.4628906C354.8808594,24.3139648,296.1826172,0,233.746582,0S112.6118164,24.3139648,68.4628906,68.4628906 C24.3139648,112.6113281,0,171.3100586,0,233.7460938c0,62.4355469,24.3139648,121.1347656,68.4628906,165.2832031 c44.1489258,44.1494141,102.8476562,68.4628906,165.2836914,68.4628906s121.1342773-24.3134766,165.2827148-68.4628906 c44.1494141-44.1484375,68.4628906-102.8476562,68.4628906-165.2832031S443.1787109,112.6113281,399.0292969,68.4628906z M79.0693359,79.0693359C120.3852539,37.753418,175.3173828,15,233.746582,15s113.3608398,22.753418,154.6762695,64.0693359 s64.0693359,96.2475586,64.0693359,154.6767578c0,48.5717163-15.7377319,94.7190552-44.777832,132.6444092 c-23.1106567-32.3151855-60.0152588-51.4070435-100.0930176-51.4070435h-147.75 c-40.078125,0-76.982666,19.0917358-100.09375,51.4068604C30.7374268,328.4649658,15,282.317688,15,233.7460938 C15,175.3168945,37.753418,120.3852539,79.0693359,79.0693359z M233.746582,302.6611328 c60.0561523,0,108.9145508-48.859375,108.9145508-108.9150391S293.8027344,84.831543,233.746582,84.831543 S124.831543,133.6904297,124.831543,193.7460938S173.6904297,302.6611328,233.746582,302.6611328z" style="fill: inherit;"/></g></svg>