<!DOCTYPE svg PUBLIC "-//W3C//DTD SVG 1.1//EN" "http://www.w3.org/Graphics/SVG/1.1/DTD/svg11.dtd">
<!-- Uploaded to: SVG Repo, www.svgrepo.com, Transformed by: SVG Repo Mixer Tools -->
<svg version="1.1" id="Icons" xmlns="http://www.w3.org/2000/svg" xmlns:xlink="http://www.w3.org/1999/xlink" viewBox="0 0 32 32" xml:space="preserve" width="800px" height="800px" fill="#000000">
<g id="SVGRepo_bgCarrier" stroke-width="0"/>
<g id="SVGRepo_tracerCarrier" stroke-linecap="round" stroke-linejoin="round"/>
<g id="SVGRepo_iconCarrier"> <style type="text/css"> .st0{fill:none;stroke:#a7a9ac;stroke-width:2;stroke-linecap:round;stroke-linejoin:round;stroke-miterlimit:10;} </style> <path class="st0" d="M19,6.8L19,6.8V3.9c0-0.6-0.6-1.2-1.1-0.8L12,8.8l5.9,5.7c0.4,0.4,1.1,0.1,1.1-0.5v-3.1h0c3.8,0,7.2,2.5,8,6 l0,0.1v-2.7C27,10.1,23.3,6.8,19,6.8z"/> <path class="st0" d="M13,25.2L13,25.2v2.8c0,0.6,0.6,1.2,1.1,0.8l5.9-5.7l-5.9-5.7C13.6,17.1,13,17.4,13,18v3.1h0 c-3.8,0-7.2-2.5-8-6L5,15v2.7C5,21.9,8.7,25.2,13,25.2z"/> </g>
</svg>